<?xml version="1.0" encoding="utf-8"?>
<!-- Generator: Adobe Illustrator 21.0.0, SVG Export Plug-In . SVG Version: 6.00 Build 0)  -->
<svg version="1.1" id="레이어_1" xmlns="http://www.w3.org/2000/svg" xmlns:xlink="http://www.w3.org/1999/xlink" x="0px"
	 y="0px" viewBox="0 0 595.3 841.9" style="enable-background:new 0 0 595.3 841.9;" xml:space="preserve">
<style type="text/css">
	.st0{fill:#002993;}
</style>
<g>
	<g>
		<path class="st0" d="M262.9,410.6v6.4h-19.9v3.3c0,0.9,0.5,1.4,1.4,1.4h12.1c1.2,0,2.5,0,3.9-0.1c1.4-0.1,2.8-0.2,4.2-0.4
			c1.4-0.2,2.7-0.3,4-0.6c1.3-0.2,2.4-0.5,3.3-0.7v-21.6h8.9v11.8h7.9v7h-7.9v13.1H272v-4.1c-0.9,0.3-2,0.6-3.2,0.9
			c-1.2,0.3-2.6,0.5-4.1,0.7c-1.5,0.2-3,0.3-4.6,0.4c-1.6,0.1-3.2,0.2-4.7,0.2h-15.9c-1.6,0-2.9-0.5-3.9-1.5c-1-1-1.5-2.3-1.5-3.9
			v-23.3h29.5v6.5h-20.6v4.5H262.9z M281.9,453v6.5h-35c-1.6,0-2.9-0.5-3.9-1.5c-1-1-1.5-2.3-1.5-3.9v-11.4h30.4v-3.6h-30.4v-6.5
			h39.3v16.3h-30.4v3c0,0.7,0.4,1.1,1.1,1.1H281.9z"/>
		<path class="st0" d="M347.7,451.4h-56.2v-6.8h23.7v-12.8h-9c-2,0-3.7-0.6-4.9-1.9c-1.2-1.2-1.9-2.9-1.9-4.9v-24.1h40v30.8h-14.8
			v12.8h23.1V451.4z M330.5,425v-17.3h-22.2V423c0,0.6,0.2,1.1,0.5,1.5c0.3,0.4,0.8,0.6,1.5,0.6H330.5z"/>
		<path class="st0" d="M366.3,401.8c1.9,0,3.7,0.3,5.3,0.8c1.7,0.6,3.1,1.4,4.4,2.4c1.3,1.1,2.4,2.4,3.2,3.9
			c0.9,1.5,1.4,3.2,1.8,5.1h3.9v-14.9h8.5v42.5h-8.5v-20.6h-4c-0.4,1.8-1,3.3-1.9,4.8c-0.9,1.4-1.9,2.6-3.2,3.6
			c-1.3,1-2.7,1.7-4.3,2.3c-1.6,0.5-3.3,0.8-5.2,0.8c-2.2,0-4.2-0.4-6-1.1c-1.8-0.7-3.4-1.7-4.8-3.1c-1.4-1.3-2.4-2.9-3.1-4.8
			s-1.1-4-1.1-6.4c0-2.3,0.4-4.5,1.1-6.4c0.7-1.9,1.8-3.5,3.1-4.9c1.4-1.3,2.9-2.4,4.8-3.1C362.1,402.1,364.1,401.8,366.3,401.8z
			 M366.3,425.9c2,0,3.5-0.8,4.7-2.3c1.1-1.6,1.7-3.7,1.7-6.4c0-2.7-0.6-4.8-1.7-6.3c-1.1-1.6-2.7-2.3-4.7-2.3c-2,0-3.5,0.8-4.7,2.3
			c-1.1,1.6-1.7,3.7-1.7,6.3c0,2.7,0.6,4.8,1.7,6.4C362.8,425.1,364.3,425.9,366.3,425.9z M406.7,459.2h-34.3c-2,0-3.7-0.6-4.9-1.9
			c-1.2-1.2-1.9-2.9-1.9-4.9v-13.2h8.9v11c0,0.6,0.2,1.1,0.5,1.5c0.3,0.4,0.8,0.6,1.5,0.6h30.2V459.2z M405.3,443.1h-8.7v-44.8h8.7
			V443.1z"/>
		<path class="st0" d="M426.3,422.1c0,0.9,0.5,1.4,1.4,1.4h12.8c1.2,0,2.5,0,3.9-0.1c1.4-0.1,2.8-0.2,4.2-0.4s2.7-0.3,4-0.6
			c1.3-0.2,2.4-0.5,3.3-0.7v-23.5h8.9v36.4h-8.9v-6.6c-0.9,0.3-2,0.6-3.2,0.9c-1.2,0.3-2.6,0.5-4.1,0.7c-1.5,0.2-3,0.3-4.6,0.4
			c-1.6,0.1-3.2,0.2-4.7,0.2h-16.6c-1.6,0-2.9-0.5-3.9-1.5c-1-1-1.5-2.3-1.5-3.9v-24.5h28.8v6.8h-19.9V422.1z M446.7,434.6
			c2.4,0,4.7,0.3,6.8,1c2.1,0.7,4,1.7,5.5,2.9s2.8,2.7,3.7,4.5c0.9,1.8,1.4,3.7,1.4,5.7c0,2.1-0.5,4-1.4,5.8
			c-0.9,1.7-2.1,3.2-3.7,4.5c-1.6,1.2-3.4,2.2-5.5,2.9c-2.1,0.7-4.4,1-6.8,1s-4.7-0.3-6.8-1c-2.1-0.7-4-1.7-5.5-2.9
			c-1.6-1.2-2.8-2.7-3.7-4.5c-0.9-1.7-1.4-3.7-1.4-5.8c0-2.1,0.4-4,1.4-5.7c0.9-1.8,2.1-3.3,3.7-4.5c1.6-1.2,3.4-2.2,5.5-2.9
			C442,435,444.3,434.6,446.7,434.6z M446.7,456.4c2.4,0,4.5-0.7,6.1-2c1.6-1.3,2.4-3.2,2.4-5.6s-0.8-4.3-2.4-5.6
			c-1.6-1.3-3.6-2-6.1-2s-4.5,0.7-6,2c-1.6,1.3-2.4,3.2-2.4,5.6s0.8,4.3,2.4,5.6C442.2,455.7,444.3,456.4,446.7,456.4z"/>
	</g>
	<g>
		<path class="st0" d="M211.7,377.8h-9v6c0,20-16.2,36.2-36.2,36.2h-27.2v-5.8h25.2c18.2,0,33-14.8,33-33v-3.4h-9v3.4
			c0,13.2-10.8,24-24,24h-25.2v-5.8h24.1c10.8,0,19.5-8.8,19.5-19.5v-2.1h-9v2.1c0,5.8-4.7,10.6-10.6,10.6H135c-2.5,0-4.5,2-4.5,4.5
			v59.9c0,2.5,2,4.5,4.5,4.5h58.1c2.5,0,4.5-2,4.5-4.5v-38.3l0.1-0.1c9.1-8.6,14.1-20.3,14.1-32.7V377.8z M188.6,450.4h-49.2v-21.5
			h27.2c7.6,0,15.1-1.9,21.7-5.6l0.3-0.2V450.4z"/>
		<circle class="st0" cx="211.5" cy="453.5" r="6.1"/>
	</g>
</g>
</svg>
