<?xml version="1.0" encoding="utf-8"?>
<!-- Generator: Adobe Illustrator 21.0.0, SVG Export Plug-In . SVG Version: 6.00 Build 0)  -->
<svg version="1.1" id="레이어_1" xmlns="http://www.w3.org/2000/svg" xmlns:xlink="http://www.w3.org/1999/xlink" x="0px"
	 y="0px" viewBox="0 0 595.3 841.9" style="enable-background:new 0 0 595.3 841.9;" xml:space="preserve">
<style type="text/css">
	.st0{fill:#002993;}
</style>
<g>
	<path class="st0" d="M211,400.4v6.4h-19.9v3.3c0,0.9,0.5,1.4,1.4,1.4h12.1c1.2,0,2.5,0,3.9-0.1c1.4-0.1,2.8-0.2,4.2-0.4
		c1.4-0.2,2.7-0.3,4-0.6c1.3-0.2,2.4-0.5,3.3-0.7V388h8.9v11.8h7.9v7h-7.9V420H220v-4.1c-0.9,0.3-2,0.6-3.2,0.9
		c-1.2,0.3-2.6,0.5-4.1,0.7c-1.5,0.2-3,0.3-4.6,0.4c-1.6,0.1-3.2,0.2-4.7,0.2h-15.9c-1.6,0-2.9-0.5-3.9-1.5c-1-1-1.5-2.3-1.5-3.9
		v-23.3h29.5v6.5h-20.6v4.5H211z M230,442.7v6.5h-35c-1.6,0-2.9-0.5-3.9-1.5c-1-1-1.5-2.3-1.5-3.9v-11.4h30.4v-3.6h-30.4v-6.5h39.3
		v16.3h-30.4v3c0,0.7,0.4,1.1,1.1,1.1H230z"/>
	<path class="st0" d="M295.7,441.1h-56.2v-6.8h23.7v-12.8h-9c-2,0-3.7-0.6-4.9-1.9c-1.2-1.2-1.9-2.9-1.9-4.9v-24.1h40v30.8h-14.8
		v12.8h23.1V441.1z M278.6,414.8v-17.3h-22.2v15.3c0,0.6,0.2,1.1,0.5,1.5c0.3,0.4,0.8,0.6,1.5,0.6H278.6z"/>
	<path class="st0" d="M314.3,391.5c1.9,0,3.7,0.3,5.3,0.8c1.7,0.6,3.1,1.4,4.4,2.4c1.3,1.1,2.4,2.4,3.2,3.9c0.9,1.5,1.4,3.2,1.8,5.1
		h3.9v-14.9h8.5v42.5h-8.5v-20.6h-4c-0.4,1.8-1,3.3-1.9,4.8c-0.9,1.4-1.9,2.6-3.2,3.6c-1.3,1-2.7,1.7-4.3,2.3
		c-1.6,0.5-3.3,0.8-5.2,0.8c-2.2,0-4.2-0.4-6-1.1c-1.8-0.7-3.4-1.7-4.8-3.1c-1.4-1.3-2.4-2.9-3.1-4.8s-1.1-4-1.1-6.4
		c0-2.3,0.4-4.5,1.1-6.4c0.7-1.9,1.8-3.5,3.1-4.9c1.4-1.3,2.9-2.4,4.8-3.1C310.2,391.9,312.2,391.5,314.3,391.5z M314.3,415.6
		c2,0,3.5-0.8,4.7-2.3c1.1-1.6,1.7-3.7,1.7-6.4c0-2.7-0.6-4.8-1.7-6.3c-1.1-1.6-2.7-2.3-4.7-2.3c-2,0-3.5,0.8-4.7,2.3
		c-1.1,1.6-1.7,3.7-1.7,6.3c0,2.7,0.6,4.8,1.7,6.4C310.8,414.9,312.3,415.6,314.3,415.6z M354.7,449h-34.3c-2,0-3.7-0.6-4.9-1.9
		c-1.2-1.2-1.9-2.9-1.9-4.9V429h8.9v11c0,0.6,0.2,1.1,0.5,1.5c0.3,0.4,0.8,0.6,1.5,0.6h30.2V449z M353.3,432.8h-8.7V388h8.7V432.8z"
		/>
	<path class="st0" d="M374.3,411.8c0,0.9,0.5,1.4,1.4,1.4h12.8c1.2,0,2.5,0,3.9-0.1c1.4-0.1,2.8-0.2,4.2-0.4c1.4-0.2,2.7-0.3,4-0.6
		c1.3-0.2,2.4-0.5,3.3-0.7V388h8.9v36.4h-8.9v-6.6c-0.9,0.3-2,0.6-3.2,0.9c-1.2,0.3-2.6,0.5-4.1,0.7c-1.5,0.2-3,0.3-4.6,0.4
		c-1.6,0.1-3.2,0.2-4.7,0.2h-16.6c-1.6,0-2.9-0.5-3.9-1.5c-1-1-1.5-2.3-1.5-3.9V390h28.8v6.8h-19.9V411.8z M394.7,424.4
		c2.4,0,4.7,0.3,6.8,1c2.1,0.7,4,1.7,5.5,2.9s2.8,2.7,3.7,4.5c0.9,1.8,1.4,3.7,1.4,5.7c0,2.1-0.5,4-1.4,5.8
		c-0.9,1.7-2.1,3.2-3.7,4.5c-1.6,1.2-3.4,2.2-5.5,2.9c-2.1,0.7-4.4,1-6.8,1s-4.7-0.3-6.8-1c-2.1-0.7-4-1.7-5.5-2.9
		c-1.6-1.2-2.8-2.7-3.7-4.5c-0.9-1.7-1.4-3.7-1.4-5.8c0-2.1,0.4-4,1.4-5.7c0.9-1.8,2.1-3.3,3.7-4.5c1.6-1.2,3.4-2.2,5.5-2.9
		C390,424.7,392.3,424.4,394.7,424.4z M394.7,446.1c2.4,0,4.5-0.7,6.1-2c1.6-1.3,2.4-3.2,2.4-5.6s-0.8-4.3-2.4-5.6
		c-1.6-1.3-3.6-2-6.1-2s-4.5,0.7-6,2c-1.6,1.3-2.4,3.2-2.4,5.6s0.8,4.3,2.4,5.6C390.3,445.5,392.3,446.1,394.7,446.1z"/>
</g>
</svg>
