<?xml version="1.0" encoding="utf-8"?>
<!-- Generator: Adobe Illustrator 21.0.0, SVG Export Plug-In . SVG Version: 6.00 Build 0)  -->
<svg version="1.1" id="레이어_1" xmlns="http://www.w3.org/2000/svg" xmlns:xlink="http://www.w3.org/1999/xlink" x="0px"
	 y="0px" viewBox="0 0 595.3 841.9" style="enable-background:new 0 0 595.3 841.9;" xml:space="preserve">
<style type="text/css">
	.st0{fill:#002993;}
</style>
<g>
	<path class="st0" d="M342.3,372.5h-10.6v7.1c0,23.6-19.2,42.8-42.8,42.8h-32.1v-6.8h29.8c21.5,0,39-17.5,39-39v-4.1h-10.6v4.1
		c0,15.7-12.7,28.4-28.4,28.4h-29.8v-6.8h28.5c12.7,0,23.1-10.4,23.1-23.1v-2.5h-10.6v2.5c0,6.9-5.6,12.5-12.5,12.5h-33.8
		c-2.9,0-5.3,2.4-5.3,5.3v70.9c0,2.9,2.4,5.3,5.3,5.3h68.8c2.9,0,5.3-2.4,5.3-5.3v-45.3l0.1-0.1c10.8-10.2,16.7-24,16.7-38.8V372.5z
		 M314.9,458.5h-58.2V433h32.1c9,0,17.8-2.3,25.6-6.6l0.4-0.2V458.5z"/>
	<ellipse class="st0" cx="342" cy="462.1" rx="7.2" ry="7.2"/>
</g>
</svg>
